# xmcd
# 
# Track frame offsets:
#     150
#     15897
#     27340
#     41179
#     58053
#     71222
#     80126
#     92453
#     97071
#     110236
#     123158
#     145682
#     166809
#     180337
# 
# Disc length: 2568
# 
# Revision: 0
# Processed by: cddbd v1.5.2PL0 Copyright (c) Steve Scherf et al.
# Submitted via: fre:ac v1.0.31
# 
DISCID=b90a060e
DTITLE=Sergey Kouznetsov - Sergey Kouznetsov
DYEAR=1998
DGENRE=Folk
TTITLE0=J.S.Bach - Organ prelude a-moll
TTITLE1=J.S.Bach Saint-Saens - Bouree
TTITLE2=A.Vivaldi - The Four Seasons - Winter
TTITLE3=F.Schubert - Ave Maria
TTITLE4=W.A.Mozart - Rondo Alla Turca
TTITLE5=A.Lyadow - A Musical Snuff-Box
TTITLE6=V.Andreev - Rumanian Song and Czardas
TTITLE7=Russian Folk Song - Oh it is a Birch
TTITLE8=Byelorussian Folk Song - A Small Quall
TTITLE9=Russian Folk Song - Urals's Dancing
TTITLE10=Russian Folk Song - Dear Maiden's Ring
TTITLE11=V.Kouznetsov - Parisien's Boulevards
TTITLE12=V.Novikov - Odessa's Quadrille
TTITLE13=S.Joplin - The Entertainer
EXTD=
EXTT0=
EXTT1=
EXTT2=
EXTT3=
EXTT4=
EXTT5=
EXTT6=
EXTT7=
EXTT8=
EXTT9=
EXTT10=
EXTT11=
EXTT12=
EXTT13=
PLAYORDER=
